<svg width="16px" height="16px" viewBox="0 0 1.28 1.28" xmlns="http://www.w3.org/2000/svg" xmlns:xlink="http://www.w3.org/1999/xlink" aria-hidden="true" role="img" class="iconify iconify--emojione-monotone" preserveAspectRatio="xMidYMid meet"><path d="M0.64 0.04a0.6 0.6 0 1 0 0 1.2 0.6 0.6 0 0 0 0 -1.2m0.182 0.706c0 0.05 -0.008 0.089 -0.025 0.118 -0.028 0.049 -0.079 0.074 -0.153 0.074S0.521 0.918 0.496 0.878A0.302 0.302 0 0 1 0.458 0.717V0.703h0.114v0.014a0.266 0.266 0 0 0 0.014 0.094c0.008 0.018 0.026 0.027 0.053 0.027s0.045 -0.01 0.054 -0.03a0.173 0.173 0 0 0 0.008 -0.06V0.342h0.122v0.404z" fill="#000000"/></svg>