<svg xmlns="http://www.w3.org/2000/svg" xmlns:xlink="http://www.w3.org/1999/xlink" width="256" zoomAndPan="magnify" viewBox="0 0 192 191.999996" height="256" preserveAspectRatio="xMidYMid meet" version="1.0"><defs><g/><clipPath id="fea6aa8347"><path d="M 96 0 C 42.980469 0 0 42.980469 0 96 C 0 149.019531 42.980469 192 96 192 C 149.019531 192 192 149.019531 192 96 C 192 42.980469 149.019531 0 96 0 Z M 96 0 " clip-rule="nonzero"/></clipPath></defs><g clip-path="url(#fea6aa8347)"><rect x="-19.2" width="230.4" fill="#ffde59" y="-19.2" height="230.399995" fill-opacity="1"/></g><g fill="#001357" fill-opacity="1"><g transform="translate(8.870772, 128.188269)"><g><path d="M 22.691406 41.695312 C 33.753906 41.835938 41.550781 36.730469 46.234375 28.078125 C 49.636719 21.980469 52.046875 13.613281 54.601562 4.253906 C 66.511719 -0.566406 80.269531 -7.515625 89.628906 -28.503906 C 90.480469 -30.347656 85.515625 -32.902344 84.808594 -31.339844 C 77.574219 -16.023438 67.363281 -7.941406 57.011719 -4.394531 C 64.386719 -31.058594 78.285156 -78.425781 83.53125 -94.734375 C 83.390625 -98.5625 71.757812 -99.980469 68.074219 -95.585938 C 51.621094 -75.304688 21.980469 -81.96875 17.019531 -62.257812 C 14.605469 -52.613281 21.554688 -43.113281 34.601562 -43.113281 C 38.574219 -43.113281 39.992188 -50.769531 37.441406 -51.339844 C 31.484375 -52.472656 31.625 -57.4375 32.617188 -61.125 C 35.171875 -71.335938 52.332031 -69.917969 63.535156 -82.539062 C 54.601562 -52.046875 50.769531 -37.722656 40.703125 -0.566406 C 28.078125 2.835938 13.898438 7.089844 8.792969 17.445312 C 1.984375 28.648438 7.234375 41.695312 22.691406 41.695312 Z M 23.117188 31.625 C 19.289062 31.484375 16.59375 27.796875 18.863281 22.125 C 21.554688 15.601562 29.921875 11.34375 38.289062 8.652344 C 36.730469 16.023438 35.171875 20.136719 34.035156 22.832031 C 31.199219 29.074219 26.519531 31.765625 23.117188 31.625 Z M 23.117188 31.625 "/></g></g></g><g fill="#001357" fill-opacity="1"><g transform="translate(92.679628, 128.188269)"><g><path d="M 22.691406 41.695312 C 33.753906 41.835938 41.550781 36.730469 46.234375 28.078125 C 49.636719 21.980469 52.046875 13.613281 54.601562 4.253906 C 66.511719 -0.566406 80.269531 -7.515625 89.628906 -28.503906 C 90.480469 -30.347656 85.515625 -32.902344 84.808594 -31.339844 C 77.574219 -16.023438 67.363281 -7.941406 57.011719 -4.394531 C 64.386719 -31.058594 78.285156 -78.425781 83.53125 -94.734375 C 83.390625 -98.5625 71.757812 -99.980469 68.074219 -95.585938 C 51.621094 -75.304688 21.980469 -81.96875 17.019531 -62.257812 C 14.605469 -52.613281 21.554688 -43.113281 34.601562 -43.113281 C 38.574219 -43.113281 39.992188 -50.769531 37.441406 -51.339844 C 31.484375 -52.472656 31.625 -57.4375 32.617188 -61.125 C 35.171875 -71.335938 52.332031 -69.917969 63.535156 -82.539062 C 54.601562 -52.046875 50.769531 -37.722656 40.703125 -0.566406 C 28.078125 2.835938 13.898438 7.089844 8.792969 17.445312 C 1.984375 28.648438 7.234375 41.695312 22.691406 41.695312 Z M 23.117188 31.625 C 19.289062 31.484375 16.59375 27.796875 18.863281 22.125 C 21.554688 15.601562 29.921875 11.34375 38.289062 8.652344 C 36.730469 16.023438 35.171875 20.136719 34.035156 22.832031 C 31.199219 29.074219 26.519531 31.765625 23.117188 31.625 Z M 23.117188 31.625 "/></g></g></g></svg>